<mxfile host="Electron" modified="2023-07-30T05:21:13.071Z" agent="Mozilla/5.0 (Windows NT 10.0; Win64; x64) AppleWebKit/537.36 (KHTML, like Gecko) draw.io/21.6.1 Chrome/112.0.5615.204 Electron/24.6.1 Safari/537.36" etag="1_5aR8BVwAJQbBydY7lm" version="21.6.1" type="device">
  <diagram name="第 1 页" id="bB537N-INVUiUfxHYbDp">
    <mxGraphModel dx="864" dy="516" grid="1" gridSize="10" guides="1" tooltips="1" connect="1" arrows="1" fold="1" page="1" pageScale="1" pageWidth="827" pageHeight="1169" math="0" shadow="0">
      <root>
        <mxCell id="0" />
        <mxCell id="1" parent="0" />
        <mxCell id="KkM-B34S3chetilRFBdd-242" value="" style="rounded=0;whiteSpace=wrap;html=1;fillColor=none;dashed=1;dashPattern=1 1;strokeColor=#f02828;" parent="1" vertex="1">
          <mxGeometry x="800" y="450" width="120" height="200" as="geometry" />
        </mxCell>
        <mxCell id="KkM-B34S3chetilRFBdd-241" value="" style="rounded=0;whiteSpace=wrap;html=1;fillColor=none;dashed=1;dashPattern=1 1;strokeColor=#d91c1c;" parent="1" vertex="1">
          <mxGeometry x="670" y="390" width="120" height="260" as="geometry" />
        </mxCell>
        <mxCell id="KkM-B34S3chetilRFBdd-265" value="" style="rounded=0;whiteSpace=wrap;html=1;fillColor=none;dashed=1;dashPattern=1 1;strokeColor=#f02828;" parent="1" vertex="1">
          <mxGeometry x="480" y="302" width="180" height="348" as="geometry" />
        </mxCell>
        <mxCell id="KkM-B34S3chetilRFBdd-234" value="" style="rounded=0;whiteSpace=wrap;html=1;fillColor=none;dashed=1;dashPattern=1 1;strokeColor=#e82c2c;" parent="1" vertex="1">
          <mxGeometry x="350" y="240" width="120" height="410" as="geometry" />
        </mxCell>
        <mxCell id="KkM-B34S3chetilRFBdd-233" value="" style="rounded=0;whiteSpace=wrap;html=1;fillColor=none;dashed=1;dashPattern=1 1;strokeColor=#dd2c2c;" parent="1" vertex="1">
          <mxGeometry x="110" y="200" width="230" height="450" as="geometry" />
        </mxCell>
        <mxCell id="KkM-B34S3chetilRFBdd-10" value="" style="group" parent="1" vertex="1" connectable="0">
          <mxGeometry x="120" y="80" width="110" height="110" as="geometry" />
        </mxCell>
        <mxCell id="KkM-B34S3chetilRFBdd-7" value="" style="rounded=0;whiteSpace=wrap;html=1;fillColor=#dae8fc;strokeColor=#6c8ebf;" parent="KkM-B34S3chetilRFBdd-10" vertex="1">
          <mxGeometry x="20" width="90" height="90" as="geometry" />
        </mxCell>
        <mxCell id="KkM-B34S3chetilRFBdd-5" value="" style="rounded=0;whiteSpace=wrap;html=1;fillColor=#d5e8d4;strokeColor=#82b366;" parent="KkM-B34S3chetilRFBdd-10" vertex="1">
          <mxGeometry x="10" y="10" width="90" height="90" as="geometry" />
        </mxCell>
        <mxCell id="KkM-B34S3chetilRFBdd-6" value="" style="rounded=0;whiteSpace=wrap;html=1;fillColor=#f8cecc;strokeColor=#b85450;" parent="KkM-B34S3chetilRFBdd-10" vertex="1">
          <mxGeometry y="20" width="90" height="90" as="geometry" />
        </mxCell>
        <mxCell id="KkM-B34S3chetilRFBdd-46" value="CBS" style="rounded=1;whiteSpace=wrap;html=1;fillColor=#6a00ff;strokeColor=#3700CC;fontColor=#ffffff;" parent="1" vertex="1">
          <mxGeometry x="260" y="120" width="50" height="50" as="geometry" />
        </mxCell>
        <mxCell id="KkM-B34S3chetilRFBdd-53" value="C2f" style="rounded=1;whiteSpace=wrap;html=1;fillColor=#f0a30a;strokeColor=#BD7000;fontColor=#000000;" parent="1" vertex="1">
          <mxGeometry x="311" y="120" width="50" height="50" as="geometry" />
        </mxCell>
        <mxCell id="KkM-B34S3chetilRFBdd-61" value="x2" style="text;strokeColor=none;align=center;fillColor=none;html=1;verticalAlign=middle;whiteSpace=wrap;rounded=0;" parent="1" vertex="1">
          <mxGeometry x="256" y="100" width="60" height="30" as="geometry" />
        </mxCell>
        <mxCell id="KkM-B34S3chetilRFBdd-131" style="edgeStyle=orthogonalEdgeStyle;rounded=0;orthogonalLoop=1;jettySize=auto;html=1;exitX=1;exitY=0.5;exitDx=0;exitDy=0;entryX=0;entryY=0.5;entryDx=0;entryDy=0;" parent="1" source="KkM-B34S3chetilRFBdd-63" target="KkM-B34S3chetilRFBdd-90" edge="1">
          <mxGeometry relative="1" as="geometry">
            <Array as="points">
              <mxPoint x="600" y="145" />
              <mxPoint x="600" y="220" />
            </Array>
          </mxGeometry>
        </mxCell>
        <mxCell id="KkM-B34S3chetilRFBdd-136" style="edgeStyle=orthogonalEdgeStyle;rounded=0;orthogonalLoop=1;jettySize=auto;html=1;exitX=1;exitY=0.5;exitDx=0;exitDy=0;entryX=0;entryY=0.5;entryDx=0;entryDy=0;" parent="1" source="KkM-B34S3chetilRFBdd-63" target="KkM-B34S3chetilRFBdd-67" edge="1">
          <mxGeometry relative="1" as="geometry" />
        </mxCell>
        <mxCell id="KkM-B34S3chetilRFBdd-63" value="C2f" style="rounded=1;whiteSpace=wrap;html=1;fillColor=#f0a30a;strokeColor=#BD7000;fontColor=#000000;" parent="1" vertex="1">
          <mxGeometry x="540" y="120" width="50" height="50" as="geometry" />
        </mxCell>
        <mxCell id="KkM-B34S3chetilRFBdd-137" style="edgeStyle=orthogonalEdgeStyle;rounded=0;orthogonalLoop=1;jettySize=auto;html=1;exitX=1;exitY=0.5;exitDx=0;exitDy=0;entryX=0;entryY=0.5;entryDx=0;entryDy=0;" parent="1" source="KkM-B34S3chetilRFBdd-64" target="KkM-B34S3chetilRFBdd-68" edge="1">
          <mxGeometry relative="1" as="geometry" />
        </mxCell>
        <mxCell id="KkM-B34S3chetilRFBdd-143" style="edgeStyle=orthogonalEdgeStyle;rounded=0;orthogonalLoop=1;jettySize=auto;html=1;exitX=1;exitY=0.5;exitDx=0;exitDy=0;entryX=0.5;entryY=1;entryDx=0;entryDy=0;" parent="1" source="KkM-B34S3chetilRFBdd-64" target="KkM-B34S3chetilRFBdd-96" edge="1">
          <mxGeometry relative="1" as="geometry">
            <Array as="points">
              <mxPoint x="480" y="145" />
              <mxPoint x="480" y="290" />
              <mxPoint x="974" y="290" />
            </Array>
          </mxGeometry>
        </mxCell>
        <mxCell id="KkM-B34S3chetilRFBdd-64" value="C2f" style="rounded=1;whiteSpace=wrap;html=1;fillColor=#f0a30a;strokeColor=#BD7000;fontColor=#000000;" parent="1" vertex="1">
          <mxGeometry x="411" y="120" width="50" height="50" as="geometry" />
        </mxCell>
        <mxCell id="KkM-B34S3chetilRFBdd-65" value="C2f" style="rounded=1;whiteSpace=wrap;html=1;fillColor=#f0a30a;strokeColor=#BD7000;fontColor=#000000;" parent="1" vertex="1">
          <mxGeometry x="670" y="120" width="50" height="50" as="geometry" />
        </mxCell>
        <mxCell id="KkM-B34S3chetilRFBdd-66" value="CBS" style="rounded=1;whiteSpace=wrap;html=1;fillColor=#6a00ff;strokeColor=#3700CC;fontColor=#ffffff;" parent="1" vertex="1">
          <mxGeometry x="361" y="120" width="50" height="50" as="geometry" />
        </mxCell>
        <mxCell id="KkM-B34S3chetilRFBdd-67" value="CBS" style="rounded=1;whiteSpace=wrap;html=1;fillColor=#6a00ff;strokeColor=#3700CC;fontColor=#ffffff;" parent="1" vertex="1">
          <mxGeometry x="620" y="120" width="50" height="50" as="geometry" />
        </mxCell>
        <mxCell id="KkM-B34S3chetilRFBdd-68" value="CBS" style="rounded=1;whiteSpace=wrap;html=1;fillColor=#6a00ff;strokeColor=#3700CC;fontColor=#ffffff;" parent="1" vertex="1">
          <mxGeometry x="490" y="120" width="50" height="50" as="geometry" />
        </mxCell>
        <mxCell id="KkM-B34S3chetilRFBdd-124" style="edgeStyle=orthogonalEdgeStyle;rounded=0;orthogonalLoop=1;jettySize=auto;html=1;exitX=0.5;exitY=1;exitDx=0;exitDy=0;entryX=0;entryY=0.5;entryDx=0;entryDy=0;" parent="1" source="KkM-B34S3chetilRFBdd-80" target="KkM-B34S3chetilRFBdd-119" edge="1">
          <mxGeometry relative="1" as="geometry" />
        </mxCell>
        <mxCell id="KkM-B34S3chetilRFBdd-80" value="C2f" style="rounded=1;whiteSpace=wrap;html=1;fillColor=#f0a30a;strokeColor=#BD7000;fontColor=#000000;" parent="1" vertex="1">
          <mxGeometry x="820" y="195" width="50" height="50" as="geometry" />
        </mxCell>
        <mxCell id="KkM-B34S3chetilRFBdd-162" value="" style="edgeStyle=orthogonalEdgeStyle;rounded=0;orthogonalLoop=1;jettySize=auto;html=1;" parent="1" source="KkM-B34S3chetilRFBdd-87" target="KkM-B34S3chetilRFBdd-90" edge="1">
          <mxGeometry relative="1" as="geometry" />
        </mxCell>
        <mxCell id="KkM-B34S3chetilRFBdd-87" value="upsample" style="rounded=1;whiteSpace=wrap;html=1;fillColor=#60a917;strokeColor=#2D7600;fontColor=#ffffff;" parent="1" vertex="1">
          <mxGeometry x="770" y="120" width="50" height="50" as="geometry" />
        </mxCell>
        <mxCell id="KkM-B34S3chetilRFBdd-90" value="Concat" style="rounded=1;whiteSpace=wrap;html=1;fillColor=#e3c800;strokeColor=#B09500;fontColor=#000000;" parent="1" vertex="1">
          <mxGeometry x="770" y="195" width="50" height="50" as="geometry" />
        </mxCell>
        <mxCell id="KkM-B34S3chetilRFBdd-141" style="edgeStyle=orthogonalEdgeStyle;rounded=0;orthogonalLoop=1;jettySize=auto;html=1;exitX=1;exitY=0.5;exitDx=0;exitDy=0;entryX=0;entryY=0.5;entryDx=0;entryDy=0;" parent="1" source="KkM-B34S3chetilRFBdd-94" target="KkM-B34S3chetilRFBdd-96" edge="1">
          <mxGeometry relative="1" as="geometry" />
        </mxCell>
        <mxCell id="KkM-B34S3chetilRFBdd-94" value="upsample" style="rounded=1;whiteSpace=wrap;html=1;fillColor=#60a917;strokeColor=#2D7600;fontColor=#ffffff;" parent="1" vertex="1">
          <mxGeometry x="870" y="195" width="50" height="50" as="geometry" />
        </mxCell>
        <mxCell id="KkM-B34S3chetilRFBdd-96" value="Concat" style="rounded=1;whiteSpace=wrap;html=1;fillColor=#e3c800;strokeColor=#B09500;fontColor=#000000;" parent="1" vertex="1">
          <mxGeometry x="949" y="195" width="50" height="50" as="geometry" />
        </mxCell>
        <mxCell id="KkM-B34S3chetilRFBdd-139" value="" style="edgeStyle=orthogonalEdgeStyle;rounded=0;orthogonalLoop=1;jettySize=auto;html=1;" parent="1" source="KkM-B34S3chetilRFBdd-99" target="KkM-B34S3chetilRFBdd-116" edge="1">
          <mxGeometry relative="1" as="geometry" />
        </mxCell>
        <mxCell id="KkM-B34S3chetilRFBdd-161" style="edgeStyle=orthogonalEdgeStyle;rounded=0;orthogonalLoop=1;jettySize=auto;html=1;exitX=0.5;exitY=1;exitDx=0;exitDy=0;entryX=0;entryY=0.5;entryDx=0;entryDy=0;" parent="1" source="KkM-B34S3chetilRFBdd-106" target="KkM-B34S3chetilRFBdd-148" edge="1">
          <mxGeometry relative="1" as="geometry">
            <Array as="points">
              <mxPoint x="745" y="370" />
              <mxPoint x="980" y="370" />
              <mxPoint x="980" y="510" />
            </Array>
          </mxGeometry>
        </mxCell>
        <mxCell id="KkM-B34S3chetilRFBdd-106" value="SPPF" style="rounded=1;whiteSpace=wrap;html=1;fillColor=#b0e3e6;strokeColor=#0e8088;" parent="1" vertex="1">
          <mxGeometry x="720" y="120" width="50" height="50" as="geometry" />
        </mxCell>
        <mxCell id="KkM-B34S3chetilRFBdd-116" value="Detect" style="rounded=1;whiteSpace=wrap;html=1;fillColor=#f5f5f5;gradientColor=#b3b3b3;strokeColor=#666666;" parent="1" vertex="1">
          <mxGeometry x="1079" y="195" width="50" height="50" as="geometry" />
        </mxCell>
        <mxCell id="KkM-B34S3chetilRFBdd-126" value="" style="edgeStyle=orthogonalEdgeStyle;rounded=0;orthogonalLoop=1;jettySize=auto;html=1;" parent="1" source="KkM-B34S3chetilRFBdd-6" target="KkM-B34S3chetilRFBdd-46" edge="1">
          <mxGeometry relative="1" as="geometry" />
        </mxCell>
        <mxCell id="KkM-B34S3chetilRFBdd-146" value="" style="edgeStyle=orthogonalEdgeStyle;rounded=0;orthogonalLoop=1;jettySize=auto;html=1;" parent="1" source="KkM-B34S3chetilRFBdd-144" target="KkM-B34S3chetilRFBdd-145" edge="1">
          <mxGeometry relative="1" as="geometry" />
        </mxCell>
        <mxCell id="KkM-B34S3chetilRFBdd-145" value="Detect" style="rounded=1;whiteSpace=wrap;html=1;fillColor=#f5f5f5;gradientColor=#b3b3b3;strokeColor=#666666;" parent="1" vertex="1">
          <mxGeometry x="1079" y="365" width="50" height="50" as="geometry" />
        </mxCell>
        <mxCell id="KkM-B34S3chetilRFBdd-151" value="" style="edgeStyle=orthogonalEdgeStyle;rounded=0;orthogonalLoop=1;jettySize=auto;html=1;" parent="1" source="KkM-B34S3chetilRFBdd-149" target="KkM-B34S3chetilRFBdd-150" edge="1">
          <mxGeometry relative="1" as="geometry" />
        </mxCell>
        <mxCell id="KkM-B34S3chetilRFBdd-150" value="Detect" style="rounded=1;whiteSpace=wrap;html=1;fillColor=#f5f5f5;gradientColor=#b3b3b3;strokeColor=#666666;" parent="1" vertex="1">
          <mxGeometry x="1079" y="535" width="50" height="50" as="geometry" />
        </mxCell>
        <mxCell id="KkM-B34S3chetilRFBdd-153" value="" style="group" parent="1" vertex="1" connectable="0">
          <mxGeometry x="999" y="315" width="50" height="150" as="geometry" />
        </mxCell>
        <mxCell id="KkM-B34S3chetilRFBdd-82" value="CBS" style="rounded=1;whiteSpace=wrap;html=1;fillColor=#6a00ff;strokeColor=#3700CC;fontColor=#ffffff;" parent="KkM-B34S3chetilRFBdd-153" vertex="1">
          <mxGeometry y="100" width="50" height="50" as="geometry" />
        </mxCell>
        <mxCell id="KkM-B34S3chetilRFBdd-119" value="Concat" style="rounded=1;whiteSpace=wrap;html=1;fillColor=#e3c800;strokeColor=#B09500;fontColor=#000000;" parent="KkM-B34S3chetilRFBdd-153" vertex="1">
          <mxGeometry width="50" height="50" as="geometry" />
        </mxCell>
        <mxCell id="KkM-B34S3chetilRFBdd-144" value="C2f" style="rounded=1;whiteSpace=wrap;html=1;fillColor=#f0a30a;strokeColor=#BD7000;fontColor=#000000;" parent="KkM-B34S3chetilRFBdd-153" vertex="1">
          <mxGeometry y="50" width="50" height="50" as="geometry" />
        </mxCell>
        <mxCell id="KkM-B34S3chetilRFBdd-154" value="" style="group" parent="1" vertex="1" connectable="0">
          <mxGeometry x="999" y="195" width="50" height="100" as="geometry" />
        </mxCell>
        <mxCell id="KkM-B34S3chetilRFBdd-99" value="C2f" style="rounded=1;whiteSpace=wrap;html=1;fillColor=#f0a30a;strokeColor=#BD7000;fontColor=#000000;" parent="KkM-B34S3chetilRFBdd-154" vertex="1">
          <mxGeometry width="50" height="50" as="geometry" />
        </mxCell>
        <mxCell id="KkM-B34S3chetilRFBdd-117" value="CBS" style="rounded=1;whiteSpace=wrap;html=1;fillColor=#6a00ff;strokeColor=#3700CC;fontColor=#ffffff;" parent="KkM-B34S3chetilRFBdd-154" vertex="1">
          <mxGeometry y="50" width="50" height="50" as="geometry" />
        </mxCell>
        <mxCell id="KkM-B34S3chetilRFBdd-155" value="" style="group" parent="1" vertex="1" connectable="0">
          <mxGeometry x="999" y="485" width="50" height="100" as="geometry" />
        </mxCell>
        <mxCell id="KkM-B34S3chetilRFBdd-148" value="Concat" style="rounded=1;whiteSpace=wrap;html=1;fillColor=#e3c800;strokeColor=#B09500;fontColor=#000000;" parent="KkM-B34S3chetilRFBdd-155" vertex="1">
          <mxGeometry width="50" height="50" as="geometry" />
        </mxCell>
        <mxCell id="KkM-B34S3chetilRFBdd-149" value="C2f" style="rounded=1;whiteSpace=wrap;html=1;fillColor=#f0a30a;strokeColor=#BD7000;fontColor=#000000;" parent="KkM-B34S3chetilRFBdd-155" vertex="1">
          <mxGeometry y="50" width="50" height="50" as="geometry" />
        </mxCell>
        <mxCell id="KkM-B34S3chetilRFBdd-157" style="edgeStyle=orthogonalEdgeStyle;rounded=0;orthogonalLoop=1;jettySize=auto;html=1;exitX=0.5;exitY=1;exitDx=0;exitDy=0;entryX=0.5;entryY=0;entryDx=0;entryDy=0;" parent="1" source="KkM-B34S3chetilRFBdd-117" target="KkM-B34S3chetilRFBdd-119" edge="1">
          <mxGeometry relative="1" as="geometry" />
        </mxCell>
        <mxCell id="KkM-B34S3chetilRFBdd-158" style="edgeStyle=orthogonalEdgeStyle;rounded=0;orthogonalLoop=1;jettySize=auto;html=1;exitX=0.5;exitY=1;exitDx=0;exitDy=0;entryX=0.5;entryY=0;entryDx=0;entryDy=0;" parent="1" source="KkM-B34S3chetilRFBdd-82" target="KkM-B34S3chetilRFBdd-148" edge="1">
          <mxGeometry relative="1" as="geometry" />
        </mxCell>
        <mxCell id="KkM-B34S3chetilRFBdd-163" value="CBS" style="rounded=1;whiteSpace=wrap;html=1;fillColor=#6a00ff;strokeColor=#3700CC;fontColor=#ffffff;" parent="1" vertex="1">
          <mxGeometry x="221" y="230" width="50" height="50" as="geometry" />
        </mxCell>
        <mxCell id="KkM-B34S3chetilRFBdd-179" style="edgeStyle=orthogonalEdgeStyle;rounded=0;orthogonalLoop=1;jettySize=auto;html=1;exitX=0;exitY=0.5;exitDx=0;exitDy=0;entryX=0;entryY=0.5;entryDx=0;entryDy=0;" parent="1" source="KkM-B34S3chetilRFBdd-165" target="KkM-B34S3chetilRFBdd-174" edge="1">
          <mxGeometry relative="1" as="geometry">
            <Array as="points">
              <mxPoint x="120" y="290" />
              <mxPoint x="120" y="510" />
            </Array>
          </mxGeometry>
        </mxCell>
        <mxCell id="KkM-B34S3chetilRFBdd-183" style="edgeStyle=orthogonalEdgeStyle;rounded=0;orthogonalLoop=1;jettySize=auto;html=1;exitX=0.5;exitY=1;exitDx=0;exitDy=0;entryX=0.5;entryY=0;entryDx=0;entryDy=0;" parent="1" source="KkM-B34S3chetilRFBdd-165" target="KkM-B34S3chetilRFBdd-168" edge="1">
          <mxGeometry relative="1" as="geometry" />
        </mxCell>
        <mxCell id="KkM-B34S3chetilRFBdd-185" style="edgeStyle=orthogonalEdgeStyle;rounded=0;orthogonalLoop=1;jettySize=auto;html=1;exitX=0.5;exitY=1;exitDx=0;exitDy=0;entryX=0;entryY=0.5;entryDx=0;entryDy=0;" parent="1" source="KkM-B34S3chetilRFBdd-165" target="KkM-B34S3chetilRFBdd-174" edge="1">
          <mxGeometry relative="1" as="geometry">
            <Array as="points">
              <mxPoint x="246" y="315" />
              <mxPoint x="140" y="315" />
              <mxPoint x="140" y="510" />
            </Array>
          </mxGeometry>
        </mxCell>
        <mxCell id="KkM-B34S3chetilRFBdd-165" value="Split" style="rounded=1;whiteSpace=wrap;html=1;" parent="1" vertex="1">
          <mxGeometry x="221" y="280" width="50" height="20" as="geometry" />
        </mxCell>
        <mxCell id="KkM-B34S3chetilRFBdd-167" value="CBS" style="rounded=1;whiteSpace=wrap;html=1;fillColor=#6a00ff;strokeColor=#3700CC;fontColor=#ffffff;" parent="1" vertex="1">
          <mxGeometry x="223" y="535" width="50" height="50" as="geometry" />
        </mxCell>
        <mxCell id="KkM-B34S3chetilRFBdd-170" value="" style="group" parent="1" vertex="1" connectable="0">
          <mxGeometry x="211.5" y="330" width="99.5" height="40" as="geometry" />
        </mxCell>
        <mxCell id="KkM-B34S3chetilRFBdd-168" value="Bottleneck" style="rounded=1;whiteSpace=wrap;html=1;fillColor=#e6d0de;strokeColor=#996185;gradientColor=#d5739d;" parent="KkM-B34S3chetilRFBdd-170" vertex="1">
          <mxGeometry width="71" height="40" as="geometry" />
        </mxCell>
        <mxCell id="KkM-B34S3chetilRFBdd-174" value="Concat" style="rounded=1;whiteSpace=wrap;html=1;fillColor=#e3c800;strokeColor=#B09500;fontColor=#000000;" parent="1" vertex="1">
          <mxGeometry x="222" y="485" width="50" height="50" as="geometry" />
        </mxCell>
        <mxCell id="KkM-B34S3chetilRFBdd-178" value="" style="edgeStyle=orthogonalEdgeStyle;rounded=0;orthogonalLoop=1;jettySize=auto;html=1;" parent="1" source="KkM-B34S3chetilRFBdd-176" target="KkM-B34S3chetilRFBdd-174" edge="1">
          <mxGeometry relative="1" as="geometry" />
        </mxCell>
        <mxCell id="KkM-B34S3chetilRFBdd-188" style="edgeStyle=orthogonalEdgeStyle;rounded=0;orthogonalLoop=1;jettySize=auto;html=1;exitX=0;exitY=0.5;exitDx=0;exitDy=0;entryX=0;entryY=0.5;entryDx=0;entryDy=0;" parent="1" source="KkM-B34S3chetilRFBdd-176" target="KkM-B34S3chetilRFBdd-174" edge="1">
          <mxGeometry relative="1" as="geometry">
            <Array as="points">
              <mxPoint x="180" y="435" />
              <mxPoint x="180" y="510" />
            </Array>
          </mxGeometry>
        </mxCell>
        <mxCell id="KkM-B34S3chetilRFBdd-176" value="Bottleneck" style="rounded=1;whiteSpace=wrap;html=1;fillColor=#e6d0de;strokeColor=#996185;gradientColor=#d5739d;" parent="1" vertex="1">
          <mxGeometry x="212.5" y="415" width="71" height="40" as="geometry" />
        </mxCell>
        <mxCell id="KkM-B34S3chetilRFBdd-177" value="" style="edgeStyle=orthogonalEdgeStyle;rounded=0;orthogonalLoop=1;jettySize=auto;html=1;" parent="1" source="KkM-B34S3chetilRFBdd-168" target="KkM-B34S3chetilRFBdd-176" edge="1">
          <mxGeometry relative="1" as="geometry" />
        </mxCell>
        <mxCell id="KkM-B34S3chetilRFBdd-180" value="……" style="edgeLabel;html=1;align=center;verticalAlign=middle;resizable=0;points=[];fontStyle=1;fontSize=15;" parent="KkM-B34S3chetilRFBdd-177" vertex="1" connectable="0">
          <mxGeometry x="-0.4163" y="-1" relative="1" as="geometry">
            <mxPoint y="1" as="offset" />
          </mxGeometry>
        </mxCell>
        <mxCell id="KkM-B34S3chetilRFBdd-186" style="edgeStyle=orthogonalEdgeStyle;rounded=0;orthogonalLoop=1;jettySize=auto;html=1;exitX=0;exitY=0.5;exitDx=0;exitDy=0;entryX=0;entryY=0.5;entryDx=0;entryDy=0;" parent="1" source="KkM-B34S3chetilRFBdd-168" target="KkM-B34S3chetilRFBdd-174" edge="1">
          <mxGeometry relative="1" as="geometry">
            <Array as="points">
              <mxPoint x="160" y="350" />
              <mxPoint x="160" y="510" />
            </Array>
          </mxGeometry>
        </mxCell>
        <mxCell id="KkM-B34S3chetilRFBdd-189" value="" style="shape=curlyBracket;whiteSpace=wrap;html=1;rounded=1;flipH=1;labelPosition=right;verticalLabelPosition=middle;align=left;verticalAlign=middle;size=0.5;" parent="1" vertex="1">
          <mxGeometry x="291" y="355" width="20" height="90" as="geometry" />
        </mxCell>
        <mxCell id="KkM-B34S3chetilRFBdd-191" value="xN" style="text;html=1;align=center;verticalAlign=middle;resizable=0;points=[];autosize=1;strokeColor=none;fillColor=none;" parent="1" vertex="1">
          <mxGeometry x="304" y="385" width="40" height="30" as="geometry" />
        </mxCell>
        <mxCell id="KkM-B34S3chetilRFBdd-203" style="edgeStyle=orthogonalEdgeStyle;rounded=0;orthogonalLoop=1;jettySize=auto;html=1;exitX=0.5;exitY=1;exitDx=0;exitDy=0;entryX=0.5;entryY=0;entryDx=0;entryDy=0;" parent="1" source="KkM-B34S3chetilRFBdd-192" target="KkM-B34S3chetilRFBdd-193" edge="1">
          <mxGeometry relative="1" as="geometry" />
        </mxCell>
        <mxCell id="KkM-B34S3chetilRFBdd-207" style="edgeStyle=orthogonalEdgeStyle;rounded=0;orthogonalLoop=1;jettySize=auto;html=1;exitX=0.5;exitY=1;exitDx=0;exitDy=0;entryX=1;entryY=0.5;entryDx=0;entryDy=0;" parent="1" source="KkM-B34S3chetilRFBdd-192" target="KkM-B34S3chetilRFBdd-198" edge="1">
          <mxGeometry relative="1" as="geometry">
            <Array as="points">
              <mxPoint x="384.94" y="338" />
              <mxPoint x="460.94" y="338" />
              <mxPoint x="460.94" y="508" />
            </Array>
          </mxGeometry>
        </mxCell>
        <mxCell id="KkM-B34S3chetilRFBdd-192" value="CBS" style="rounded=1;whiteSpace=wrap;html=1;fillColor=#6a00ff;strokeColor=#3700CC;fontColor=#ffffff;" parent="1" vertex="1">
          <mxGeometry x="359.94" y="278" width="50" height="50" as="geometry" />
        </mxCell>
        <mxCell id="KkM-B34S3chetilRFBdd-204" style="edgeStyle=orthogonalEdgeStyle;rounded=0;orthogonalLoop=1;jettySize=auto;html=1;exitX=0.5;exitY=1;exitDx=0;exitDy=0;entryX=0.5;entryY=0;entryDx=0;entryDy=0;" parent="1" source="KkM-B34S3chetilRFBdd-193" target="KkM-B34S3chetilRFBdd-196" edge="1">
          <mxGeometry relative="1" as="geometry" />
        </mxCell>
        <mxCell id="KkM-B34S3chetilRFBdd-209" style="edgeStyle=orthogonalEdgeStyle;rounded=0;orthogonalLoop=1;jettySize=auto;html=1;exitX=0.5;exitY=1;exitDx=0;exitDy=0;" parent="1" source="KkM-B34S3chetilRFBdd-193" edge="1">
          <mxGeometry relative="1" as="geometry">
            <mxPoint x="460.94" y="388" as="targetPoint" />
            <Array as="points">
              <mxPoint x="384.94" y="388" />
            </Array>
          </mxGeometry>
        </mxCell>
        <mxCell id="KkM-B34S3chetilRFBdd-193" value="pooling" style="rounded=1;whiteSpace=wrap;html=1;fillColor=#eeeeee;strokeColor=#36393d;" parent="1" vertex="1">
          <mxGeometry x="359.94" y="351" width="50" height="20" as="geometry" />
        </mxCell>
        <mxCell id="KkM-B34S3chetilRFBdd-205" style="edgeStyle=orthogonalEdgeStyle;rounded=0;orthogonalLoop=1;jettySize=auto;html=1;exitX=0.5;exitY=1;exitDx=0;exitDy=0;entryX=0.5;entryY=0;entryDx=0;entryDy=0;" parent="1" source="KkM-B34S3chetilRFBdd-196" target="KkM-B34S3chetilRFBdd-197" edge="1">
          <mxGeometry relative="1" as="geometry" />
        </mxCell>
        <mxCell id="KkM-B34S3chetilRFBdd-210" style="edgeStyle=orthogonalEdgeStyle;rounded=0;orthogonalLoop=1;jettySize=auto;html=1;exitX=0.5;exitY=1;exitDx=0;exitDy=0;" parent="1" source="KkM-B34S3chetilRFBdd-196" edge="1">
          <mxGeometry relative="1" as="geometry">
            <mxPoint x="460.94" y="428" as="targetPoint" />
            <Array as="points">
              <mxPoint x="384.94" y="428" />
            </Array>
          </mxGeometry>
        </mxCell>
        <mxCell id="KkM-B34S3chetilRFBdd-196" value="pooling" style="rounded=1;whiteSpace=wrap;html=1;fillColor=#eeeeee;strokeColor=#36393d;" parent="1" vertex="1">
          <mxGeometry x="359.94" y="393" width="50" height="20" as="geometry" />
        </mxCell>
        <mxCell id="KkM-B34S3chetilRFBdd-206" style="edgeStyle=orthogonalEdgeStyle;rounded=0;orthogonalLoop=1;jettySize=auto;html=1;exitX=0.5;exitY=1;exitDx=0;exitDy=0;entryX=0.5;entryY=0;entryDx=0;entryDy=0;" parent="1" source="KkM-B34S3chetilRFBdd-197" target="KkM-B34S3chetilRFBdd-198" edge="1">
          <mxGeometry relative="1" as="geometry" />
        </mxCell>
        <mxCell id="KkM-B34S3chetilRFBdd-197" value="pooling" style="rounded=1;whiteSpace=wrap;html=1;fillColor=#eeeeee;strokeColor=#36393d;" parent="1" vertex="1">
          <mxGeometry x="359.94" y="438" width="50" height="20" as="geometry" />
        </mxCell>
        <mxCell id="KkM-B34S3chetilRFBdd-198" value="Concat" style="rounded=1;whiteSpace=wrap;html=1;fillColor=#e3c800;strokeColor=#B09500;fontColor=#000000;" parent="1" vertex="1">
          <mxGeometry x="359.94" y="483" width="50" height="50" as="geometry" />
        </mxCell>
        <mxCell id="KkM-B34S3chetilRFBdd-199" value="CBS" style="rounded=1;whiteSpace=wrap;html=1;fillColor=#6a00ff;strokeColor=#3700CC;fontColor=#ffffff;" parent="1" vertex="1">
          <mxGeometry x="359.94" y="533" width="50" height="50" as="geometry" />
        </mxCell>
        <mxCell id="KkM-B34S3chetilRFBdd-214" value="Conv2d" style="rounded=1;whiteSpace=wrap;html=1;fillColor=#e51400;fontColor=#ffffff;strokeColor=#B20000;" parent="1" vertex="1">
          <mxGeometry x="825" y="491" width="70" height="30" as="geometry" />
        </mxCell>
        <mxCell id="KkM-B34S3chetilRFBdd-215" value="BatchNorm" style="rounded=1;whiteSpace=wrap;html=1;fillColor=#647687;fontColor=#ffffff;strokeColor=#314354;" parent="1" vertex="1">
          <mxGeometry x="825" y="521" width="70" height="30" as="geometry" />
        </mxCell>
        <mxCell id="KkM-B34S3chetilRFBdd-216" value="SiLU" style="rounded=1;whiteSpace=wrap;html=1;fillColor=#a0522d;fontColor=#ffffff;strokeColor=#6D1F00;" parent="1" vertex="1">
          <mxGeometry x="825" y="551" width="70" height="30" as="geometry" />
        </mxCell>
        <mxCell id="KkM-B34S3chetilRFBdd-217" value="CBS" style="rounded=1;whiteSpace=wrap;html=1;fillColor=#6a00ff;strokeColor=#3700CC;fontColor=#ffffff;" parent="1" vertex="1">
          <mxGeometry x="720" y="431" width="50" height="50" as="geometry" />
        </mxCell>
        <mxCell id="KkM-B34S3chetilRFBdd-224" value="" style="edgeStyle=orthogonalEdgeStyle;rounded=0;orthogonalLoop=1;jettySize=auto;html=1;" parent="1" source="KkM-B34S3chetilRFBdd-218" target="KkM-B34S3chetilRFBdd-219" edge="1">
          <mxGeometry relative="1" as="geometry" />
        </mxCell>
        <mxCell id="KkM-B34S3chetilRFBdd-218" value="CBS" style="rounded=1;whiteSpace=wrap;html=1;fillColor=#6a00ff;strokeColor=#3700CC;fontColor=#ffffff;" parent="1" vertex="1">
          <mxGeometry x="720" y="481" width="50" height="50" as="geometry" />
        </mxCell>
        <mxCell id="KkM-B34S3chetilRFBdd-219" value="&lt;b&gt;&lt;font style=&quot;font-size: 19px;&quot;&gt;+&lt;/font&gt;&lt;/b&gt;" style="ellipse;whiteSpace=wrap;html=1;aspect=fixed;" parent="1" vertex="1">
          <mxGeometry x="732.5" y="556" width="25" height="25" as="geometry" />
        </mxCell>
        <mxCell id="KkM-B34S3chetilRFBdd-220" value="" style="endArrow=classic;html=1;rounded=0;entryX=0.5;entryY=0;entryDx=0;entryDy=0;" parent="1" target="KkM-B34S3chetilRFBdd-163" edge="1">
          <mxGeometry width="50" height="50" relative="1" as="geometry">
            <mxPoint x="246" y="200" as="sourcePoint" />
            <mxPoint x="660" y="370" as="targetPoint" />
          </mxGeometry>
        </mxCell>
        <mxCell id="KkM-B34S3chetilRFBdd-221" value="" style="endArrow=classic;html=1;rounded=0;exitX=0.5;exitY=1;exitDx=0;exitDy=0;" parent="1" source="KkM-B34S3chetilRFBdd-167" edge="1">
          <mxGeometry width="50" height="50" relative="1" as="geometry">
            <mxPoint x="610" y="420" as="sourcePoint" />
            <mxPoint x="248" y="610" as="targetPoint" />
          </mxGeometry>
        </mxCell>
        <mxCell id="KkM-B34S3chetilRFBdd-222" value="" style="endArrow=classic;html=1;rounded=0;entryX=0.5;entryY=0;entryDx=0;entryDy=0;" parent="1" target="KkM-B34S3chetilRFBdd-192" edge="1">
          <mxGeometry width="50" height="50" relative="1" as="geometry">
            <mxPoint x="384.94" y="248" as="sourcePoint" />
            <mxPoint x="659.94" y="388" as="targetPoint" />
          </mxGeometry>
        </mxCell>
        <mxCell id="KkM-B34S3chetilRFBdd-223" value="" style="endArrow=classic;html=1;rounded=0;exitX=0.5;exitY=1;exitDx=0;exitDy=0;" parent="1" source="KkM-B34S3chetilRFBdd-199" edge="1">
          <mxGeometry width="50" height="50" relative="1" as="geometry">
            <mxPoint x="609.94" y="438" as="sourcePoint" />
            <mxPoint x="384.94" y="608" as="targetPoint" />
          </mxGeometry>
        </mxCell>
        <mxCell id="KkM-B34S3chetilRFBdd-225" value="" style="endArrow=classic;html=1;rounded=0;exitX=0.5;exitY=1;exitDx=0;exitDy=0;" parent="1" source="KkM-B34S3chetilRFBdd-219" edge="1">
          <mxGeometry width="50" height="50" relative="1" as="geometry">
            <mxPoint x="800" y="511" as="sourcePoint" />
            <mxPoint x="745" y="611" as="targetPoint" />
            <Array as="points">
              <mxPoint x="745" y="601" />
            </Array>
          </mxGeometry>
        </mxCell>
        <mxCell id="KkM-B34S3chetilRFBdd-227" value="" style="endArrow=classic;html=1;rounded=0;entryX=0;entryY=0.5;entryDx=0;entryDy=0;dashed=1;dashPattern=8 8;" parent="1" target="KkM-B34S3chetilRFBdd-219" edge="1">
          <mxGeometry width="50" height="50" relative="1" as="geometry">
            <mxPoint x="745" y="411" as="sourcePoint" />
            <mxPoint x="744.41" y="436" as="targetPoint" />
            <Array as="points">
              <mxPoint x="710" y="411" />
              <mxPoint x="680" y="411" />
              <mxPoint x="680" y="461" />
              <mxPoint x="680" y="569" />
            </Array>
          </mxGeometry>
        </mxCell>
        <mxCell id="KkM-B34S3chetilRFBdd-228" value="" style="endArrow=classic;html=1;rounded=0;entryX=0.5;entryY=0;entryDx=0;entryDy=0;" parent="1" target="KkM-B34S3chetilRFBdd-217" edge="1">
          <mxGeometry width="50" height="50" relative="1" as="geometry">
            <mxPoint x="745" y="401" as="sourcePoint" />
            <mxPoint x="850" y="461" as="targetPoint" />
          </mxGeometry>
        </mxCell>
        <mxCell id="KkM-B34S3chetilRFBdd-229" value="&lt;b&gt;&lt;font style=&quot;font-size: 15px;&quot;&gt;C2f&lt;/font&gt;&lt;/b&gt;" style="text;html=1;align=center;verticalAlign=middle;resizable=0;points=[];autosize=1;strokeColor=none;fillColor=none;" parent="1" vertex="1">
          <mxGeometry x="223" y="618" width="50" height="30" as="geometry" />
        </mxCell>
        <mxCell id="KkM-B34S3chetilRFBdd-230" value="&lt;font style=&quot;font-size: 15px;&quot;&gt;&lt;b&gt;SPPF&lt;/b&gt;&lt;/font&gt;" style="text;html=1;align=center;verticalAlign=middle;resizable=0;points=[];autosize=1;strokeColor=none;fillColor=none;" parent="1" vertex="1">
          <mxGeometry x="354.94" y="618" width="60" height="30" as="geometry" />
        </mxCell>
        <mxCell id="KkM-B34S3chetilRFBdd-231" value="&lt;font style=&quot;font-size: 15px;&quot;&gt;&lt;b&gt;Bottleneck&lt;/b&gt;&lt;/font&gt;" style="text;html=1;align=center;verticalAlign=middle;resizable=0;points=[];autosize=1;strokeColor=none;fillColor=none;" parent="1" vertex="1">
          <mxGeometry x="670" y="618" width="100" height="30" as="geometry" />
        </mxCell>
        <mxCell id="KkM-B34S3chetilRFBdd-232" value="&lt;font style=&quot;font-size: 15px;&quot;&gt;&lt;b&gt;CBS&lt;/b&gt;&lt;/font&gt;" style="text;html=1;align=center;verticalAlign=middle;resizable=0;points=[];autosize=1;strokeColor=none;fillColor=none;" parent="1" vertex="1">
          <mxGeometry x="830" y="618" width="60" height="30" as="geometry" />
        </mxCell>
        <mxCell id="KkM-B34S3chetilRFBdd-238" value="" style="endArrow=classic;html=1;rounded=0;entryX=0.5;entryY=0;entryDx=0;entryDy=0;" parent="1" target="KkM-B34S3chetilRFBdd-214" edge="1">
          <mxGeometry width="50" height="50" relative="1" as="geometry">
            <mxPoint x="860" y="458" as="sourcePoint" />
            <mxPoint x="865" y="381" as="targetPoint" />
          </mxGeometry>
        </mxCell>
        <mxCell id="KkM-B34S3chetilRFBdd-239" value="" style="endArrow=classic;html=1;rounded=0;" parent="1" edge="1">
          <mxGeometry width="50" height="50" relative="1" as="geometry">
            <mxPoint x="859.41" y="581" as="sourcePoint" />
            <mxPoint x="859" y="608" as="targetPoint" />
          </mxGeometry>
        </mxCell>
        <mxCell id="KkM-B34S3chetilRFBdd-255" value="" style="edgeStyle=orthogonalEdgeStyle;rounded=0;orthogonalLoop=1;jettySize=auto;html=1;" parent="1" source="KkM-B34S3chetilRFBdd-244" target="KkM-B34S3chetilRFBdd-250" edge="1">
          <mxGeometry relative="1" as="geometry" />
        </mxCell>
        <mxCell id="KkM-B34S3chetilRFBdd-244" value="CBS" style="rounded=1;whiteSpace=wrap;html=1;fillColor=#6a00ff;strokeColor=#3700CC;fontColor=#ffffff;" parent="1" vertex="1">
          <mxGeometry x="590" y="419.5" width="50" height="50" as="geometry" />
        </mxCell>
        <mxCell id="KkM-B34S3chetilRFBdd-254" value="" style="edgeStyle=orthogonalEdgeStyle;rounded=0;orthogonalLoop=1;jettySize=auto;html=1;" parent="1" source="KkM-B34S3chetilRFBdd-245" target="KkM-B34S3chetilRFBdd-249" edge="1">
          <mxGeometry relative="1" as="geometry" />
        </mxCell>
        <mxCell id="KkM-B34S3chetilRFBdd-245" value="CBS" style="rounded=1;whiteSpace=wrap;html=1;fillColor=#6a00ff;strokeColor=#3700CC;fontColor=#ffffff;" parent="1" vertex="1">
          <mxGeometry x="500" y="419.5" width="50" height="50" as="geometry" />
        </mxCell>
        <mxCell id="KkM-B34S3chetilRFBdd-246" value="CBS" style="rounded=1;whiteSpace=wrap;html=1;fillColor=#6a00ff;strokeColor=#3700CC;fontColor=#ffffff;" parent="1" vertex="1">
          <mxGeometry x="590" y="369.5" width="50" height="50" as="geometry" />
        </mxCell>
        <mxCell id="KkM-B34S3chetilRFBdd-247" value="CBS" style="rounded=1;whiteSpace=wrap;html=1;fillColor=#6a00ff;strokeColor=#3700CC;fontColor=#ffffff;" parent="1" vertex="1">
          <mxGeometry x="500" y="369.5" width="50" height="50" as="geometry" />
        </mxCell>
        <mxCell id="KkM-B34S3chetilRFBdd-258" style="edgeStyle=orthogonalEdgeStyle;rounded=0;orthogonalLoop=1;jettySize=auto;html=1;exitX=0.5;exitY=1;exitDx=0;exitDy=0;entryX=0.5;entryY=0;entryDx=0;entryDy=0;" parent="1" source="KkM-B34S3chetilRFBdd-249" target="KkM-B34S3chetilRFBdd-256" edge="1">
          <mxGeometry relative="1" as="geometry" />
        </mxCell>
        <mxCell id="KkM-B34S3chetilRFBdd-249" value="Conv2d" style="rounded=1;whiteSpace=wrap;html=1;fillColor=#e51400;fontColor=#ffffff;strokeColor=#B20000;" parent="1" vertex="1">
          <mxGeometry x="490" y="502.5" width="70" height="30" as="geometry" />
        </mxCell>
        <mxCell id="KkM-B34S3chetilRFBdd-259" style="edgeStyle=orthogonalEdgeStyle;rounded=0;orthogonalLoop=1;jettySize=auto;html=1;exitX=0.5;exitY=1;exitDx=0;exitDy=0;entryX=0.5;entryY=0;entryDx=0;entryDy=0;" parent="1" source="KkM-B34S3chetilRFBdd-250" target="KkM-B34S3chetilRFBdd-257" edge="1">
          <mxGeometry relative="1" as="geometry" />
        </mxCell>
        <mxCell id="KkM-B34S3chetilRFBdd-250" value="Conv2d" style="rounded=1;whiteSpace=wrap;html=1;fillColor=#e51400;fontColor=#ffffff;strokeColor=#B20000;" parent="1" vertex="1">
          <mxGeometry x="580" y="502.5" width="70" height="30" as="geometry" />
        </mxCell>
        <mxCell id="KkM-B34S3chetilRFBdd-252" value="" style="endArrow=classic;startArrow=classic;html=1;rounded=0;entryX=0.5;entryY=0;entryDx=0;entryDy=0;exitX=0.5;exitY=0;exitDx=0;exitDy=0;" parent="1" source="KkM-B34S3chetilRFBdd-247" target="KkM-B34S3chetilRFBdd-246" edge="1">
          <mxGeometry width="50" height="50" relative="1" as="geometry">
            <mxPoint x="200" y="509.5" as="sourcePoint" />
            <mxPoint x="250" y="459.5" as="targetPoint" />
            <Array as="points">
              <mxPoint x="525" y="352" />
              <mxPoint x="570" y="352" />
              <mxPoint x="615" y="352" />
            </Array>
          </mxGeometry>
        </mxCell>
        <mxCell id="KkM-B34S3chetilRFBdd-253" value="" style="endArrow=none;html=1;rounded=0;" parent="1" edge="1">
          <mxGeometry width="50" height="50" relative="1" as="geometry">
            <mxPoint x="569.41" y="353" as="sourcePoint" />
            <mxPoint x="569.41" y="313" as="targetPoint" />
          </mxGeometry>
        </mxCell>
        <mxCell id="KkM-B34S3chetilRFBdd-256" value="BBox&lt;br&gt;loss" style="rounded=1;whiteSpace=wrap;html=1;fillColor=#d0cee2;strokeColor=#56517e;" parent="1" vertex="1">
          <mxGeometry x="500" y="554.5" width="50" height="50" as="geometry" />
        </mxCell>
        <mxCell id="KkM-B34S3chetilRFBdd-257" value="Cls&lt;br&gt;loss" style="rounded=1;whiteSpace=wrap;html=1;fillColor=#d0cee2;strokeColor=#56517e;" parent="1" vertex="1">
          <mxGeometry x="590" y="554.5" width="50" height="50" as="geometry" />
        </mxCell>
        <mxCell id="KkM-B34S3chetilRFBdd-263" value="&lt;span style=&quot;font-size: 15px;&quot;&gt;&lt;b&gt;Detect&lt;/b&gt;&lt;/span&gt;" style="text;html=1;align=center;verticalAlign=middle;resizable=0;points=[];autosize=1;strokeColor=none;fillColor=none;" parent="1" vertex="1">
          <mxGeometry x="535" y="620" width="70" height="30" as="geometry" />
        </mxCell>
      </root>
    </mxGraphModel>
  </diagram>
</mxfile>
